<mxfile host="app.diagrams.net" modified="2021-02-15T15:47:21.991Z" agent="5.0 (Windows)" etag="qJp4vrR60mOZ567skc-U" version="14.3.2" type="github">
  <diagram id="Ey52cyQhJORx0A6IA45z" name="Page-1">
    <mxGraphModel dx="1755" dy="840" grid="1" gridSize="10" guides="1" tooltips="1" connect="1" arrows="1" fold="1" page="1" pageScale="1" pageWidth="827" pageHeight="1169" math="0" shadow="0">
      <root>
        <mxCell id="0" />
        <mxCell id="1" parent="0" />
        <mxCell id="GVL7jHg9A317HGDI8Kaq-1" value="" style="whiteSpace=wrap;html=1;" parent="1" vertex="1">
          <mxGeometry x="284" y="70" width="260" height="520" as="geometry" />
        </mxCell>
        <mxCell id="GVL7jHg9A317HGDI8Kaq-9" value="" style="shape=flexArrow;endArrow=classic;html=1;" parent="1" edge="1">
          <mxGeometry width="50" height="50" relative="1" as="geometry">
            <mxPoint x="590" y="50" as="sourcePoint" />
            <mxPoint x="590" y="590" as="targetPoint" />
          </mxGeometry>
        </mxCell>
        <mxCell id="GVL7jHg9A317HGDI8Kaq-10" value="&lt;div style=&quot;font-size: 20px&quot;&gt;&lt;font style=&quot;font-size: 20px&quot;&gt;&lt;font style=&quot;font-size: 20px&quot;&gt;Scroll &lt;/font&gt;&lt;br&gt;&lt;/font&gt;&lt;/div&gt;&lt;div&gt;&lt;font style=&quot;font-size: 20px&quot;&gt;Direction&lt;/font&gt;&lt;/div&gt;" style="edgeLabel;html=1;align=center;verticalAlign=middle;resizable=0;points=[];" parent="GVL7jHg9A317HGDI8Kaq-9" vertex="1" connectable="0">
          <mxGeometry x="-0.059" y="-1" relative="1" as="geometry">
            <mxPoint as="offset" />
          </mxGeometry>
        </mxCell>
        <mxCell id="GVL7jHg9A317HGDI8Kaq-19" value="" style="group" parent="1" vertex="1" connectable="0">
          <mxGeometry x="310" y="100" width="208" height="120" as="geometry" />
        </mxCell>
        <mxCell id="GVL7jHg9A317HGDI8Kaq-4" value="&lt;div style=&quot;font-size: 20px&quot;&gt;&lt;font style=&quot;font-size: 20px&quot;&gt;Layout&lt;/font&gt;&lt;/div&gt;" style="rounded=1;whiteSpace=wrap;html=1;" parent="GVL7jHg9A317HGDI8Kaq-19" vertex="1">
          <mxGeometry width="208" height="120" as="geometry" />
        </mxCell>
        <mxCell id="GVL7jHg9A317HGDI8Kaq-15" value="Item" style="rhombus;whiteSpace=wrap;html=1;" parent="GVL7jHg9A317HGDI8Kaq-19" vertex="1">
          <mxGeometry x="10" y="10" width="80" height="40" as="geometry" />
        </mxCell>
        <mxCell id="GVL7jHg9A317HGDI8Kaq-16" value="Item" style="rhombus;whiteSpace=wrap;html=1;" parent="GVL7jHg9A317HGDI8Kaq-19" vertex="1">
          <mxGeometry x="120" y="10" width="80" height="40" as="geometry" />
        </mxCell>
        <mxCell id="GVL7jHg9A317HGDI8Kaq-17" value="Item" style="rhombus;whiteSpace=wrap;html=1;" parent="GVL7jHg9A317HGDI8Kaq-19" vertex="1">
          <mxGeometry x="120" y="70" width="80" height="40" as="geometry" />
        </mxCell>
        <mxCell id="GVL7jHg9A317HGDI8Kaq-18" value="Item" style="rhombus;whiteSpace=wrap;html=1;" parent="GVL7jHg9A317HGDI8Kaq-19" vertex="1">
          <mxGeometry x="10" y="70" width="80" height="40" as="geometry" />
        </mxCell>
        <mxCell id="GVL7jHg9A317HGDI8Kaq-20" value="" style="group" parent="1" vertex="1" connectable="0">
          <mxGeometry x="310" y="240" width="208" height="120" as="geometry" />
        </mxCell>
        <mxCell id="GVL7jHg9A317HGDI8Kaq-21" value="&lt;div style=&quot;font-size: 20px&quot;&gt;&lt;font style=&quot;font-size: 20px&quot;&gt;Layout&lt;/font&gt;&lt;/div&gt;" style="rounded=1;whiteSpace=wrap;html=1;" parent="GVL7jHg9A317HGDI8Kaq-20" vertex="1">
          <mxGeometry width="208" height="120" as="geometry" />
        </mxCell>
        <mxCell id="GVL7jHg9A317HGDI8Kaq-22" value="Item" style="rhombus;whiteSpace=wrap;html=1;" parent="GVL7jHg9A317HGDI8Kaq-20" vertex="1">
          <mxGeometry x="10" y="10" width="80" height="40" as="geometry" />
        </mxCell>
        <mxCell id="GVL7jHg9A317HGDI8Kaq-23" value="Item" style="rhombus;whiteSpace=wrap;html=1;" parent="GVL7jHg9A317HGDI8Kaq-20" vertex="1">
          <mxGeometry x="120" y="10" width="80" height="40" as="geometry" />
        </mxCell>
        <mxCell id="GVL7jHg9A317HGDI8Kaq-24" value="Item" style="rhombus;whiteSpace=wrap;html=1;" parent="GVL7jHg9A317HGDI8Kaq-20" vertex="1">
          <mxGeometry x="120" y="70" width="80" height="40" as="geometry" />
        </mxCell>
        <mxCell id="GVL7jHg9A317HGDI8Kaq-25" value="Item" style="rhombus;whiteSpace=wrap;html=1;" parent="GVL7jHg9A317HGDI8Kaq-20" vertex="1">
          <mxGeometry x="10" y="70" width="80" height="40" as="geometry" />
        </mxCell>
        <mxCell id="GVL7jHg9A317HGDI8Kaq-26" value="" style="group" parent="1" vertex="1" connectable="0">
          <mxGeometry x="310" y="380" width="208" height="120" as="geometry" />
        </mxCell>
        <mxCell id="GVL7jHg9A317HGDI8Kaq-27" value="&lt;div style=&quot;font-size: 20px&quot;&gt;&lt;font style=&quot;font-size: 20px&quot;&gt;Layout&lt;/font&gt;&lt;/div&gt;" style="rounded=1;whiteSpace=wrap;html=1;" parent="GVL7jHg9A317HGDI8Kaq-26" vertex="1">
          <mxGeometry width="208" height="120" as="geometry" />
        </mxCell>
        <mxCell id="GVL7jHg9A317HGDI8Kaq-28" value="Item" style="rhombus;whiteSpace=wrap;html=1;" parent="GVL7jHg9A317HGDI8Kaq-26" vertex="1">
          <mxGeometry x="10" y="10" width="80" height="40" as="geometry" />
        </mxCell>
        <mxCell id="GVL7jHg9A317HGDI8Kaq-29" value="Item" style="rhombus;whiteSpace=wrap;html=1;" parent="GVL7jHg9A317HGDI8Kaq-26" vertex="1">
          <mxGeometry x="120" y="10" width="80" height="40" as="geometry" />
        </mxCell>
        <mxCell id="GVL7jHg9A317HGDI8Kaq-30" value="Item" style="rhombus;whiteSpace=wrap;html=1;" parent="GVL7jHg9A317HGDI8Kaq-26" vertex="1">
          <mxGeometry x="120" y="70" width="80" height="40" as="geometry" />
        </mxCell>
        <mxCell id="GVL7jHg9A317HGDI8Kaq-31" value="Item" style="rhombus;whiteSpace=wrap;html=1;" parent="GVL7jHg9A317HGDI8Kaq-26" vertex="1">
          <mxGeometry x="10" y="70" width="80" height="40" as="geometry" />
        </mxCell>
        <mxCell id="GVL7jHg9A317HGDI8Kaq-39" value="" style="ellipse;whiteSpace=wrap;html=1;aspect=fixed;fillColor=#f5f5f5;strokeColor=#666666;fontColor=#333333;" parent="1" vertex="1">
          <mxGeometry x="409" y="540" width="10" height="10" as="geometry" />
        </mxCell>
        <mxCell id="GVL7jHg9A317HGDI8Kaq-40" value="" style="ellipse;whiteSpace=wrap;html=1;aspect=fixed;fillColor=#f5f5f5;strokeColor=#666666;fontColor=#333333;" parent="1" vertex="1">
          <mxGeometry x="409" y="560" width="10" height="10" as="geometry" />
        </mxCell>
        <mxCell id="GVL7jHg9A317HGDI8Kaq-41" value="" style="ellipse;whiteSpace=wrap;html=1;aspect=fixed;fillColor=#f5f5f5;strokeColor=#666666;fontColor=#333333;" parent="1" vertex="1">
          <mxGeometry x="409" y="520" width="10" height="10" as="geometry" />
        </mxCell>
        <mxCell id="wLXFj1Sc-MDZePs78UrJ-1" value="&lt;font style=&quot;font-size: 32px&quot;&gt;View&lt;/font&gt;" style="text;html=1;align=center;verticalAlign=middle;resizable=0;points=[];autosize=1;" vertex="1" parent="1">
          <mxGeometry x="284" y="30" width="80" height="30" as="geometry" />
        </mxCell>
      </root>
    </mxGraphModel>
  </diagram>
</mxfile>
